<svg width="28" height="29" viewBox="0 0 28 29" fill="none" xmlns="http://www.w3.org/2000/svg">
<path d="M14 1.66832C7.08404 1.66832 1.45837 7.29515 1.45837 14.21C1.45837 21.1248 7.08404 26.7517 14 26.7517C20.916 26.7517 26.5417 21.1248 26.5417 14.21C26.5417 7.29515 20.916 1.66832 14 1.66832ZM14 25.0017C8.04887 25.0017 3.20837 20.1612 3.20837 14.21C3.20837 8.25882 8.04887 3.41832 14 3.41832C19.9512 3.41832 24.7917 8.25882 24.7917 14.21C24.7917 20.1612 19.9512 25.0017 14 25.0017ZM18.7017 10.8686C19.0435 11.2105 19.0435 11.7647 18.7017 12.1065L13.2569 17.5513C13.0865 17.7217 12.8625 17.808 12.6385 17.808C12.4145 17.808 12.1906 17.7228 12.0202 17.5513L9.29838 14.8295C8.95654 14.4877 8.95654 13.9335 9.29838 13.5916C9.64021 13.2498 10.1944 13.2498 10.5362 13.5916L12.6397 15.6952L17.465 10.8698C17.8069 10.528 18.3599 10.528 18.7017 10.8686Z" fill="#2972FF"/>
</svg>
