<svg viewBox="0 0 61 61" xmlns="http://www.w3.org/2000/svg">
<path d="M40.8699 26.4055C41.1647 25.3964 42.2196 24.8168 43.2362 25.1117C43.4675 25.1803 43.7394 25.2134 44.0724 25.2134C46.2862 25.2134 48.0884 23.401 48.0884 21.172C48.0884 19.3496 46.8581 17.7561 45.0916 17.2986C44.0724 17.0343 43.4599 15.9921 43.7268 14.9729C43.9886 13.9537 45.0232 13.3489 46.05 13.6056C49.494 14.5003 51.9009 17.6111 51.9009 21.1695C51.9009 25.5005 48.3881 29.0231 44.0724 29.0231C43.3734 29.0231 42.7482 28.9393 42.1637 28.769C41.1521 28.4742 40.575 27.417 40.8699 26.4055ZM48.0298 30.3247C48.0044 30.3247 47.9816 30.3247 47.9612 30.3247C46.9395 30.3247 46.093 31.133 46.0574 32.1624C46.0168 33.2146 46.8404 34.0966 47.8927 34.1347C53.5682 34.3406 54.0104 39.2052 54.0104 40.6921V45.75C54.0104 46.8022 54.8644 47.6562 55.9166 47.6562C56.9689 47.6562 57.8229 46.8022 57.8229 45.75V40.6921C57.8229 36.0713 55.2583 30.5839 48.0298 30.3247ZM16.953 29.0259C17.652 29.0259 18.2772 28.9418 18.8617 28.7715C19.8708 28.4741 20.4504 27.417 20.1555 26.4055C19.8607 25.3964 18.8033 24.8168 17.7892 25.1117C17.5579 25.1803 17.286 25.2134 16.953 25.2134C14.7392 25.2134 12.937 23.401 12.937 21.172C12.937 19.3343 14.1773 17.7307 15.9564 17.2732C16.9731 17.0114 17.5909 15.972 17.3266 14.9528C17.0622 13.931 16.02 13.3132 15.0033 13.5826C11.5441 14.4748 9.12696 17.5958 9.12696 21.172C9.12442 25.503 12.6373 29.0259 16.953 29.0259ZM14.8916 32.1521C14.8484 31.0999 13.9841 30.2688 12.9115 30.3247C5.72624 30.6144 3.17706 36.0917 3.17706 40.6921V45.75C3.17706 46.8022 4.03106 47.6562 5.08331 47.6562C6.13556 47.6562 6.98956 46.8022 6.98956 45.75V40.6921C6.98956 38.7935 7.58175 34.3533 13.0667 34.1347C14.1189 34.0915 14.9348 33.2044 14.8916 32.1521ZM20.9892 17.7917C20.9892 12.5355 25.2668 8.26041 30.5205 8.26041C35.7741 8.26041 40.0517 12.5355 40.0517 17.7917C40.0517 23.0478 35.7741 27.3229 30.5205 27.3229C25.2668 27.3229 20.9892 23.0478 20.9892 17.7917ZM24.8017 17.7917C24.8017 20.9459 27.3688 23.5104 30.5205 23.5104C33.6721 23.5104 36.2392 20.9459 36.2392 17.7917C36.2392 14.6374 33.6721 12.0729 30.5205 12.0729C27.3688 12.0729 24.8017 14.6374 24.8017 17.7917ZM35.0165 30.8534H25.981C16.2337 30.8534 12.7769 37.9877 12.7769 44.0978V50.8333C12.7769 51.8856 13.6309 52.7396 14.6831 52.7396C15.7354 52.7396 16.5894 51.8856 16.5894 50.8333V44.0978C16.5894 41.8841 17.2682 34.6659 25.981 34.6659H35.0165C43.7318 34.6659 44.4081 41.8841 44.4081 44.0978V50.8333C44.4081 51.8856 45.2621 52.7396 46.3143 52.7396C47.3666 52.7396 48.2206 51.8856 48.2206 50.8333V44.0978C48.2231 37.9877 44.7638 30.8534 35.0165 30.8534Z"/>
</svg>
