<svg width="51" height="23" viewBox="0 0 51 23" fill="none" xmlns="http://www.w3.org/2000/svg">
<path d="M39.4223 0.330688C33.4441 0.330688 28.583 5.19178 28.583 11.17C28.583 13.8581 29.6009 16.2886 31.2281 18.1836H19.565C21.1897 16.2886 22.2095 13.8581 22.2095 11.17C22.2095 5.19178 17.3484 0.330688 11.3702 0.330688C5.39204 0.330688 0.530945 5.19178 0.530945 11.17C0.530945 17.1481 5.39204 22.0092 11.3702 22.0092H39.4248C45.403 22.0092 50.2641 17.1481 50.2641 11.17C50.2641 5.19178 45.4005 0.330688 39.4223 0.330688ZM4.35408 11.17C4.35408 7.30353 7.49874 4.15631 11.3677 4.15631C15.2367 4.15631 18.3814 7.30353 18.3814 11.17C18.3814 15.0364 15.2367 18.1836 11.3677 18.1836C7.49874 18.1836 4.35408 15.0364 4.35408 11.17ZM39.4223 18.1836C35.5533 18.1836 32.4087 15.0364 32.4087 11.17C32.4087 7.30353 35.5533 4.15631 39.4223 4.15631C43.2913 4.15631 46.436 7.30353 46.436 11.17C46.436 15.0364 43.2913 18.1836 39.4223 18.1836Z" fill="#1A1C22"/>
</svg>
