<svg width="61" height="62" viewBox="0 0 61 62" xmlns="http://www.w3.org/2000/svg">
<path d="M53.9571 35.3942C50.6122 40.9949 43.1067 50.3959 30.5 50.3959C28.0524 50.3959 25.6354 50.0234 23.3174 49.2864C22.3135 48.9676 21.7593 47.894 22.077 46.8866C22.3922 45.8767 23.4722 45.3257 24.4685 45.6394C26.4129 46.2566 28.4413 46.5703 30.5 46.5703C41.2309 46.5703 47.7582 38.3325 50.6912 33.4204C51.7282 31.6963 51.7281 29.5615 50.6962 27.8426C49.8168 26.3557 48.7415 24.8355 47.5799 23.4354C46.9064 22.6218 47.0186 21.4157 47.8294 20.7424C48.6427 20.0665 49.8421 20.1785 50.5156 20.9896C51.8017 22.5428 52.9961 24.2337 53.967 25.8787C55.7284 28.804 55.7286 32.4561 53.9571 35.3942ZM25.5768 38.2765L8.97217 54.9382C8.60109 55.3106 8.11302 55.4993 7.62502 55.4993C7.13702 55.4993 6.64894 55.3132 6.27786 54.9382C5.53315 54.191 5.53315 52.9794 6.27786 52.2322L14.3478 44.1345C10.9724 41.2142 8.51979 37.8657 7.038 35.3892C5.27408 32.4562 5.27396 28.8043 7.04296 25.8687C10.3878 20.268 17.8933 10.867 30.5 10.867C35.164 10.867 39.5611 12.1905 43.6024 14.7791L52.0254 6.32715C52.7701 5.57988 53.9775 5.57988 54.7222 6.32715C55.4669 7.07443 55.4669 8.28596 54.7222 9.03324L25.5817 38.274C25.5817 38.274 25.5818 38.2765 25.5793 38.2765C25.5767 38.2765 25.5768 38.2739 25.5768 38.2765ZM24.4226 34.025L33.8831 24.5319C32.8614 23.9529 31.7149 23.6191 30.5 23.6191C26.6468 23.6191 23.5129 26.7637 23.5129 30.6327C23.5129 31.8493 23.8482 32.9997 24.4226 34.025ZM17.0471 41.4234L21.6526 36.802C20.3945 35.0091 19.7004 32.8797 19.7004 30.6277C19.7004 24.6521 24.5449 19.7884 30.5 19.7884C32.7468 19.7884 34.8663 20.4849 36.6531 21.7473L40.7989 17.5873C37.5836 15.6975 34.1397 14.6851 30.5 14.6851C19.7691 14.6851 13.2419 22.923 10.3088 27.8351C9.27178 29.5592 9.2719 31.6939 10.3038 33.4129C11.6687 35.7006 13.9361 38.7939 17.0471 41.4234ZM37.3829 31.7398C36.9254 34.6983 34.5515 37.0827 31.6083 37.5393C30.5687 37.6999 29.8546 38.6767 30.0148 39.7198C30.1622 40.666 30.9729 41.3418 31.8956 41.3418C31.9922 41.3418 32.0913 41.3341 32.1878 41.3188C36.8315 40.5996 40.4327 36.986 41.1494 32.3238C41.3096 31.2782 40.598 30.304 39.5559 30.1408C38.5393 29.9852 37.543 30.6941 37.3829 31.7398Z"/>
</svg>