<svg width="45" height="67" viewBox="0 0 45 67" xmlns="http://www.w3.org/2000/svg">
<path d="M37.2186 39.6015L37.2317 39.5888L37.2438 39.5751C37.3981 39.4018 37.5575 39.2287 37.718 39.0546C38.113 38.6256 38.5144 38.1899 38.8609 37.7272C42.3277 33.0988 43.9977 27.8366 43.4646 21.9398C42.6565 12.9993 38.1954 6.53115 30.2972 3.16817C26.2235 1.43363 22.246 0.934482 18.4558 1.66651C14.6668 2.3983 11.1007 4.35351 7.83658 7.46987C2.0471 12.9972 -0.0988307 20.0909 1.44921 28.0243C2.34647 32.6226 4.19183 36.389 6.92269 39.3026C9.65332 42.2159 13.2462 44.252 17.6002 45.4262C18.4344 45.6511 19.3128 45.7817 20.1557 45.907C20.3871 45.9414 20.6159 45.9754 20.8403 46.0108V46.0113V46.0271V46.0428V46.0585V46.0743V46.09V46.1058V46.1215V46.1372V46.153V46.1687V46.1845V46.2002V46.2159V46.2317V46.2474V46.2632V46.2789V46.2947V46.3104V46.3261V46.3419V46.3576V46.3734V46.3891V46.4049V46.4206V46.4364V46.4521V46.4679V46.4836V46.4994V46.5151V46.5309V46.5466V46.5624V46.5782V46.5939V46.6097V46.6254V46.6412V46.6569V46.6727V46.6885V46.7042V46.72V46.7357V46.7515V46.7673V46.783V46.7988V46.8146V46.8303V46.8461V46.8619V46.8776V46.8934V46.9092V46.9249V46.9407V46.9565V46.9723V46.988V47.0038V47.0196V47.0353V47.0511V47.0669V47.0827V47.0985V47.1142V47.13V47.1458V47.1616V47.1774V47.1931V47.2089V47.2247V47.2405V47.2563V47.2721V47.2878V47.3036V47.3194V47.3352V47.351V47.3668V47.3826V47.3984V47.4142V47.43V47.4458V47.4616V47.4773V47.4931V47.5089V47.5247V47.5405V47.5563V47.5721V47.5879V47.6037V47.6196V47.6354V47.6512V47.667V47.6828V47.6986V47.7144V47.7302V47.746V47.7618V47.7776V47.7934V47.8093V47.8251V47.8409V47.8567V47.8725V47.8883V47.9042V47.92V47.9358V47.9516V47.9675V47.9833V47.9991V48.0149V48.0308V48.0466V48.0624V48.0782V48.0941V48.1099V48.1257V48.1416V48.1574V48.1732V48.1891V48.2049V48.2207V48.2366V48.2524V48.2683V48.2841V48.3V48.3158V48.3316V48.3475V48.3633V48.3792V48.395V48.4109V48.4267V48.4426V48.4584V48.4743V48.4901V48.506V48.5219V48.5377V48.5536V48.5694V48.5853V48.6012V48.617V48.6329V48.6488V48.6646V48.6805V48.6964V48.7122V48.7281V48.744V48.7598V48.7757V48.7916V48.8075V48.8233V48.8392V48.8551V48.871V48.8869V48.9027V48.9186V48.9345V48.9504V48.9663V48.9822V48.9981V49.014V49.0299V49.0457V49.0616V49.0775V49.0934V49.1093V49.1252V49.1411V49.157V49.1729V49.1888V49.2047V49.2206V49.2365V49.2525V49.2684V49.2843V49.3002V49.3161V49.332V49.3479V49.3638V49.3798V49.3957V49.4116V49.4275V49.4434V49.4594V49.4753V49.4912V49.5071V49.5231V49.539V49.5549V49.5709V49.5868V49.6027V49.6187V49.6346V49.6506V49.6665V49.6824V49.6984V49.7143V49.7303V49.7462V49.7622V49.7781V49.7941V49.81V49.826V49.8419V49.8579V49.8738V49.8898V49.9057V49.9217V49.9377V49.9536V49.9696V49.9856V50.0015V50.0175V50.0335V50.0494V50.0654V50.0814V50.0974V50.1133V50.1293V50.1453V50.1613V50.1773V50.1932V50.2092V50.2252V50.2412V50.2572V50.2732V50.2892V50.3052V50.3212V50.3372V50.3531V50.3691V50.3851V50.4011V50.4172V50.4332V50.4492V50.4652V50.4812V50.4972V50.5132V50.5292V50.5452V50.5612V50.5773V50.5933V50.6093V50.6253V50.6413V50.6574V50.6734V50.6894V50.7055V50.7215V50.7375V50.7536V50.7696V50.7856V50.8017V50.8177V50.8337V50.8498V50.8658V50.8819V50.8979V50.914V50.93V50.9461V50.9621V50.9782V50.9942V51.0103V51.0264V51.0424V51.0585V51.0745V51.0906V51.1067V51.1227V51.1388V51.1549V51.171V51.187V51.2031V51.2192V51.2353V51.2514V51.2674V51.2835V51.2996V51.3157V51.3318V51.3479V51.364V51.3801V51.3962V51.4123V51.4284V51.4445V51.4606V51.4767V51.4928V51.5089V51.525V51.5411V51.5572V51.5733V51.5894V51.6056V51.6217V51.6378V51.6539V51.67V51.6862V51.7023V51.7184V51.7346V51.7507V51.7668V51.783V51.7991V51.8152V51.8314V51.8475V51.8637V51.8798V51.896V51.9121V51.9283V51.9444V51.9606V51.9767V51.9929V52.009V52.0252V52.0414V52.0575V52.0737V52.0899V52.106V52.1222V52.1384V52.1546V52.1707V52.1869V52.2031V52.2193V52.2355V52.2517V52.2678V52.284V52.3002V52.3164V52.3326V52.3488V52.365V52.3812V52.3974V52.4136V52.4298V52.446V52.4623V52.4785V52.4947V52.5109V52.5271V52.5433V52.5596V52.5758V52.592V52.6082V52.6245V52.6407V52.6569V52.6732V52.6894V52.7056V52.7219V52.7381V52.7544V52.7706V52.7869V52.8031V52.8194V52.8356V52.8519V52.8681V52.8844V52.9006V52.9169V52.9332V52.9494V52.9657V52.982V52.9983V53.0145V53.0308V53.0471V53.0634V53.0797V53.0959V53.1122V53.1285V53.1448V53.1611V53.1774V53.1937V53.21V53.2263V53.2426V53.2589V53.2654H20.8389H20.8371H20.8353H20.8334H20.8316H20.8298H20.828H20.8262H20.8243H20.8225H20.8207H20.8189H20.8171H20.8152H20.8134H20.8116H20.8098H20.808H20.8062H20.8044H20.8025H20.8007H20.7989H20.7971H20.7953H20.7935H20.7917H20.7899H20.7881H20.7863H20.7845H20.7827H20.7809H20.7791H20.7773H20.7755H20.7737H20.7719H20.7701H20.7683H20.7665H20.7647H20.7629H20.7611H20.7593H20.7575H20.7557H20.7539H20.7521H20.7503H20.7485H20.7467H20.7449H20.7431H20.7414H20.7396H20.7378H20.736H20.7342H20.7324H20.7306H20.7289H20.7271H20.7253H20.7235H20.7217H20.7199H20.7182H20.7164H20.7146H20.7128H20.711H20.7093H20.7075H20.7057H20.7039H20.7022H20.7004H20.6986H20.6968H20.6951H20.6933H20.6915H20.6897H20.688H20.6862H20.6844H20.6826H20.6809H20.6791H20.6773H20.6756H20.6738H20.672H20.6703H20.6685H20.6667H20.665H20.6632H20.6614H20.6597H20.6579H20.6562H20.6544H20.6526H20.6509H20.6491H20.6473H20.6456H20.6438H20.6421H20.6403H20.6385H20.6368H20.635H20.6333H20.6315H20.6298H20.628H20.6262H20.6245H20.6227H20.621H20.6192H20.6175H20.6157H20.614H20.6122H20.6105H20.6087H20.607H20.6052H20.6035H20.6017H20.6H20.5982H20.5965H20.5947H20.593H20.5912H20.5895H20.5877H20.586H20.5842H20.5825H20.5807H20.579H20.5773H20.5755H20.5738H20.572H20.5703H20.5685H20.5668H20.565H20.5633H20.5616H20.5598H20.5581H20.5563H20.5546H20.5529H20.5511H20.5494H20.5476H20.5459H20.5442H20.5424H20.5407H20.5389H20.5372H20.5355H20.5337H20.532H20.5302H20.5285H20.5268H20.525H20.5233H20.5216H20.5198H20.5181H20.5164H20.5146H20.5129H20.5112H20.5094H20.5077H20.506H20.5042H20.5025H20.5008H20.499H20.4973H20.4956H20.4938H20.4921H20.4904H20.4886H20.4869H20.4852H20.4834H20.4817H20.48H20.4782H20.4765H20.4748H20.473H20.4713H20.4696H20.4679H20.4661H20.4644H20.4627H20.4609H20.4592H20.4575H20.4557H20.454H20.4523H20.4506H20.4488H20.4471H20.4454H20.4436H20.4419H20.4402H20.4385H20.4367H20.435H20.4333H20.4315H20.4298H20.4281H20.4264H20.4246H20.4229H20.4212H20.4195H20.4177H20.416H20.4143H20.4125H20.4108H20.4091H20.4074H20.4056H20.4039H20.4022H20.4005H20.3987H20.397H20.3953H20.3935H20.3918H20.3901H20.3884C19.8361 53.2654 19.2838 53.2653 18.7315 53.2652C16.8504 53.2649 14.9688 53.2646 13.0874 53.2679C13.0366 53.268 12.9802 53.265 12.9043 53.261L12.9012 53.2608C12.8298 53.2571 12.7408 53.2524 12.6515 53.2533C12.4937 53.2549 12.2167 53.2711 11.9858 53.4475C11.8176 53.5759 11.6173 53.7539 11.4546 53.9543C11.3096 54.133 11.1145 54.4252 11.1232 54.7664C11.132 55.108 11.3381 55.3883 11.4895 55.5601C11.6576 55.751 11.8599 55.9192 12.0168 56.041C12.2471 56.22 12.5259 56.223 12.6631 56.2203C12.7376 56.2189 12.8133 56.2132 12.8729 56.2088L12.8881 56.2077C12.9565 56.2026 13.004 56.1996 13.0439 56.1997C13.6048 56.2002 14.1661 56.2013 14.7276 56.2024C16.7089 56.2063 18.6937 56.2101 20.6775 56.1903C20.795 56.1892 20.863 56.1986 20.8999 56.2082C20.9005 56.2105 20.9012 56.2131 20.9019 56.216C20.9128 56.2601 20.9222 56.3374 20.9202 56.4661C20.8978 57.9174 20.9018 59.3711 20.9059 60.8194C20.9074 61.3469 20.9089 61.8736 20.9091 62.3993C20.9091 62.5986 20.9088 62.7987 20.9084 62.9995C20.9073 63.6006 20.9062 64.2075 20.9168 64.8124C20.9233 65.1783 21.0132 65.5535 21.2464 65.8497C21.4924 66.1623 21.8552 66.3318 22.2814 66.3399C22.7213 66.3482 23.1037 66.1931 23.3699 65.8769C23.6215 65.5782 23.7231 65.1908 23.7413 64.8096C23.7488 64.6525 23.7472 64.4869 23.7458 64.3397C23.7453 64.285 23.7448 64.2329 23.7448 64.1847L23.7449 57.1427L23.7449 56.4572V56.2012L24.3877 56.2012C25.0552 56.2012 25.7225 56.2007 26.3895 56.2003C28.1557 56.1991 29.9205 56.1979 31.6858 56.2049C32.0181 56.2062 32.4584 56.1954 32.8309 56.0073C33.2624 55.7893 33.5208 55.3838 33.5785 54.8068C33.6276 54.3155 33.4496 53.8834 33.042 53.6052C32.6782 53.3567 32.1855 53.2686 31.6568 53.2655C31.5419 53.2649 31.4258 53.265 31.3119 53.2652C31.2613 53.2653 31.2112 53.2654 31.1617 53.2654C30.6147 53.2654 30.0677 53.2654 29.5207 53.2655C27.7437 53.2658 25.9671 53.266 24.1904 53.2635C24.0571 53.2633 23.929 53.2575 23.7932 53.2496V53.2492V53.2329V53.2167V53.2004V53.1842V53.1679V53.1517V53.1354V53.1192V53.1029V53.0867V53.0705V53.0542V53.038V53.0218V53.0055V52.9893V52.9731V52.9568V52.9406V52.9244V52.9082V52.892V52.8757V52.8595V52.8433V52.8271V52.8109V52.7947V52.7785V52.7623V52.7461V52.7299V52.7137V52.6975V52.6813V52.6651V52.6489V52.6327V52.6165V52.6003V52.5841V52.5679V52.5518V52.5356V52.5194V52.5032V52.487V52.4709V52.4547V52.4385V52.4223V52.4062V52.39V52.3738V52.3577V52.3415V52.3253V52.3092V52.293V52.2769V52.2607V52.2446V52.2284V52.2122V52.1961V52.18V52.1638V52.1477V52.1315V52.1154V52.0992V52.0831V52.067V52.0508V52.0347V52.0186V52.0024V51.9863V51.9702V51.954V51.9379V51.9218V51.9057V51.8895V51.8734V51.8573V51.8412V51.8251V51.809V51.7929V51.7767V51.7606V51.7445V51.7284V51.7123V51.6962V51.6801V51.664V51.6479V51.6318V51.6157V51.5996V51.5835V51.5674V51.5513V51.5353V51.5192V51.5031V51.487V51.4709V51.4548V51.4387V51.4227V51.4066V51.3905V51.3744V51.3584V51.3423V51.3262V51.3102V51.2941V51.278V51.2619V51.2459V51.2298V51.2138V51.1977V51.1816V51.1656V51.1495V51.1335V51.1174V51.1014V51.0853V51.0693V51.0532V51.0372V51.0211V51.0051V50.989V50.973V50.957V50.9409V50.9249V50.9088V50.8928V50.8768V50.8607V50.8447V50.8287V50.8126V50.7966V50.7806V50.7646V50.7485V50.7325V50.7165V50.7005V50.6845V50.6684V50.6524V50.6364V50.6204V50.6044V50.5884V50.5723V50.5563V50.5403V50.5243V50.5083V50.4923V50.4763V50.4603V50.4443V50.4283V50.4123V50.3963V50.3803V50.3643V50.3483V50.3323V50.3163V50.3003V50.2844V50.2684V50.2524V50.2364V50.2204V50.2044V50.1884V50.1725V50.1565V50.1405V50.1245V50.1086V50.0926V50.0766V50.0606V50.0447V50.0287V50.0127V49.9967V49.9808V49.9648V49.9488V49.9329V49.9169V49.9009V49.885V49.869V49.8531V49.8371V49.8212V49.8052V49.7892V49.7733V49.7573V49.7414V49.7254V49.7095V49.6935V49.6776V49.6616V49.6457V49.6297V49.6138V49.5979V49.5819V49.566V49.55V49.5341V49.5182V49.5022V49.4863V49.4703V49.4544V49.4385V49.4226V49.4066V49.3907V49.3748V49.3588V49.3429V49.327V49.3111V49.2951V49.2792V49.2633V49.2474V49.2314V49.2155V49.1996V49.1837V49.1678V49.1519V49.1359V49.12V49.1041V49.0882V49.0723V49.0564V49.0405V49.0246V49.0087V48.9927V48.9768V48.9609V48.945V48.9291V48.9132V48.8973V48.8814V48.8655V48.8496V48.8337V48.8178V48.8019V48.786V48.7701V48.7542V48.7384V48.7225V48.7066V48.6907V48.6748V48.6589V48.643V48.6271V48.6112V48.5954V48.5795V48.5636V48.5477V48.5318V48.5159V48.5001V48.4842V48.4683V48.4524V48.4366V48.4207V48.4048V48.3889V48.373V48.3572V48.3413V48.3254V48.3096V48.2937V48.2778V48.2619V48.2461V48.2302V48.2143V48.1985V48.1826V48.1668V48.1509V48.135V48.1192V48.1033V48.0874V48.0716V48.0557V48.0399V48.024V48.0081V47.9923V47.9764V47.9606V47.9447V47.9289V47.913V47.8972V47.8813V47.8655V47.8496V47.8338V47.8179V47.8021V47.7862V47.7704V47.7545V47.7387V47.7228V47.707V47.6911V47.6753V47.6594V47.6436V47.6278V47.6119V47.5961V47.5802V47.5644V47.5486V47.5327V47.5169V47.501V47.4852V47.4694V47.4535V47.4377V47.4219V47.406V47.3902V47.3744V47.3585V47.3427V47.3269V47.3111V47.2952V47.2794V47.2636V47.2477V47.2319V47.2161V47.2003V47.1844V47.1686V47.1528V47.137V47.1211V47.1053V47.0895V47.0737V47.0578V47.042V47.0262V47.0104V46.9946V46.9787V46.9629V46.9471V46.9313V46.9155V46.8996V46.8838V46.868V46.8522V46.8364V46.8206V46.8048V46.7889V46.7731V46.7573V46.7415V46.7257V46.7099V46.6941V46.6783V46.6624V46.6466V46.6308V46.615V46.5992V46.5834V46.5676V46.5518V46.536V46.5202V46.5044V46.4886V46.4728V46.4569V46.4411V46.4253V46.4095V46.3937V46.3779V46.3621V46.3463V46.3305V46.3147V46.2989V46.2831V46.2673V46.2515V46.2357V46.2199V46.2041V46.1883V46.1725V46.1567V46.1409V46.1251V46.1093V46.0935V46.0777V46.0619V46.0461V46.0303V46.0145V45.9987V45.983V45.9672V45.9635C26.9976 45.4146 29.3285 44.8144 31.3449 43.8792C33.4555 42.9003 35.1919 41.5683 37.2186 39.6015ZM30.0566 6.20101C30.885 6.61999 31.655 7.122 32.4509 7.64088C32.8181 7.88027 33.1908 8.12325 33.5773 8.36332C35.9398 10.4501 37.8057 12.7652 39.044 15.5886C41.0741 20.2176 41.3662 24.9841 39.8326 29.7736C37.8771 35.881 33.9054 40.0432 28.0998 42.0906C22.8382 43.946 17.7095 43.3715 12.9128 40.3834C8.3109 37.5167 5.30377 33.3304 4.24649 27.8228C2.83828 20.4871 4.8485 14.2296 10.1233 9.19091C15.4658 4.08764 23.5438 2.90698 30.0566 6.20101Z"/>
</svg>
