<svg width="65" height="67" viewBox="0 0 65 67" xmlns="http://www.w3.org/2000/svg">
<path d="M8.98209 22.9753L8.98204 22.9752L8.97532 22.9814C2.07037 29.3085 -0.532687 37.104 0.976397 46.3609C1.73966 51.0428 3.79848 55.0166 6.91011 58.4577C11.0027 62.9837 16.0786 65.6975 22.041 66.2271C30.2988 66.9604 37.3843 64.1361 42.7469 57.5098C48.2278 50.7374 49.6235 42.9653 47.3636 34.5449C46.4562 31.164 44.7614 28.1894 42.7627 25.8787L60.5352 6.99739L60.5352 7.48258C60.5352 8.6308 60.5359 9.77873 60.5367 10.9265C60.5389 14.1954 60.5411 17.4627 60.5254 20.7304C60.5233 21.1585 60.5389 21.7135 60.74 22.1505C60.8477 22.3845 61.0187 22.6089 61.2853 22.7545C61.5505 22.8993 61.857 22.9373 62.184 22.8968C62.4465 22.8642 62.6603 22.7063 62.803 22.5742C62.9591 22.4297 63.1023 22.2482 63.2228 22.0606C63.4525 21.7032 63.6653 21.2198 63.6712 20.7992C63.7276 16.7595 63.728 12.7171 63.7284 8.67856C63.7286 6.93687 63.7288 5.19593 63.7335 3.45627C63.7352 2.8239 63.5883 2.26492 63.1921 1.87043C62.7964 1.47638 62.2454 1.33949 61.6491 1.34021C59.8707 1.34238 58.0919 1.34323 56.313 1.34409C52.4695 1.34594 48.625 1.34779 44.7811 1.36283C44.4251 1.36422 43.9213 1.37524 43.5035 1.58518C43.2795 1.69772 43.0745 1.86899 42.929 2.12011C42.7857 2.36737 42.7185 2.66006 42.7144 2.98914C42.7102 3.32966 42.7687 3.63428 42.9167 3.88763C43.07 4.15021 43.2924 4.31147 43.5285 4.40486C43.7529 4.49364 43.9895 4.52141 44.1926 4.53155C44.3396 4.53889 44.4985 4.53756 44.6375 4.53639C44.6862 4.53598 44.7324 4.53559 44.7748 4.5356C48.058 4.53648 51.3413 4.53638 54.6245 4.53628C55.7294 4.53625 56.8343 4.53621 57.9393 4.53621H58.1459L40.0338 22.9784C29.6788 14.1994 16.5453 16.2944 8.98209 22.9753ZM3.8814 44.059C3.85027 43.7201 3.78858 43.3689 3.73139 43.0434C3.70896 42.9157 3.68722 42.792 3.6683 42.6745C3.64446 36.3706 5.49658 31.0577 9.62507 26.767C13.0722 23.1845 17.2239 21.029 22.1977 20.5525C29.8843 19.8161 36.0831 22.5328 40.8363 28.6939C44.3348 33.2289 45.6138 38.4649 45.0166 44.2785C44.5175 49.1364 42.5307 53.2637 39.2929 56.6771C36.0209 60.1263 32.0473 62.2976 27.2716 62.8489C22.1901 63.4355 17.4886 62.6317 13.2561 59.7352C7.79611 55.9987 4.50618 50.864 3.8814 44.059Z"/>
</svg>
