<svg version="1.1" id="Logo" xmlns="http://www.w3.org/2000/svg" xmlns:xlink="http://www.w3.org/1999/xlink" x="0px" y="0px"
	 width="100%" viewBox="0 0 1024 656" enable-background="new 0 0 1024 656" xml:space="preserve">
<path fill="currentcolor" opacity="1.000000" stroke="none" 
	d="
M97.000610,272.021851 
	C121.479645,240.981979 152.326889,221.506195 191.678467,216.588089 
	C200.758850,215.453232 209.865479,214.761002 219.022171,214.762512 
	C264.350006,214.770004 309.678070,214.705551 355.005402,214.859116 
	C359.601837,214.874680 361.590149,213.591827 362.914764,208.949203 
	C370.908966,180.930405 381.639771,153.995712 398.684082,130.155029 
	C427.738800,89.514755 467.025757,67.736229 517.528137,67.709641 
	C608.017151,67.662003 698.506104,67.710022 788.995117,67.691040 
	C826.423096,67.683189 859.319885,79.478554 886.645508,105.429070 
	C902.643127,120.621681 914.852905,138.619644 924.518982,158.401474 
	C940.009766,190.103912 948.955139,223.701645 954.495544,258.433624 
	C958.263367,282.053345 959.712463,305.732208 959.260437,329.580719 
	C958.643799,362.110443 945.862000,388.414703 918.391785,406.476318 
	C894.564148,422.143005 868.605835,425.499756 841.467896,416.620361 
	C804.407288,404.494324 780.015015,370.623505 779.672974,331.542511 
	C779.642334,328.043152 779.609436,324.542908 779.656982,321.044128 
	C779.691101,318.536621 778.539001,317.343018 776.042358,317.392700 
	C775.043213,317.412598 774.042908,317.370209 773.043152,317.370148 
	C730.048340,317.367462 687.053589,317.362274 644.058777,317.381256 
	C642.422302,317.381958 640.721802,317.024902 638.898254,318.012573 
	C638.823181,322.048584 641.075684,325.490326 642.476807,329.096619 
	C653.987732,358.724121 660.978760,389.435272 665.443420,420.844788 
	C668.497864,442.333313 669.522339,463.881012 669.103943,485.528046 
	C668.255859,529.407776 641.523010,564.523743 600.347656,575.527405 
	C556.258728,587.309631 512.159058,565.962402 492.777069,524.649780 
	C486.793732,511.896271 484.243256,498.445099 484.606812,484.397675 
	C484.671448,481.900024 484.539154,479.397430 484.597229,476.899445 
	C484.683228,473.200653 483.343750,471.785217 479.265442,471.791962 
	C399.108704,471.924866 318.951721,471.894836 238.794769,471.874268 
	C235.300308,471.873383 231.791061,471.805603 228.315567,471.481079 
	C224.671280,471.140778 223.149796,472.410706 223.240662,476.204498 
	C223.499817,487.021912 223.110046,497.734528 220.543732,508.406067 
	C212.040680,543.764282 182.618454,571.416138 146.755844,577.220337 
	C99.613060,584.850037 56.666306,558.122253 42.653908,512.361084 
	C40.358559,504.865051 39.214672,497.094360 38.860420,489.302460 
	C37.471386,458.749878 40.190407,428.437714 45.762535,398.445007 
	C52.112659,364.264648 61.908997,331.131042 78.689865,300.400665 
	C84.042717,290.598145 89.679924,280.978058 97.000610,272.021851 
M298.499969,450.703369 
	C356.499420,450.701904 414.498932,450.735596 472.498322,450.672485 
	C485.791382,450.658020 483.878113,452.607361 484.039154,438.936890 
	C484.134369,430.855774 484.045258,430.931610 476.326843,429.243469 
	C457.054199,425.028259 440.111389,416.314484 427.747955,400.780243 
	C409.932526,378.395782 402.809875,352.792755 409.117401,324.493896 
	C416.674896,290.586975 438.694977,269.583954 470.685120,258.149292 
	C474.818451,256.671875 480.548187,258.009888 483.107727,254.261383 
	C485.557281,250.674026 483.784485,245.497192 484.043274,241.027771 
	C484.052826,240.861984 484.024445,240.694046 484.033691,240.528214 
	C484.211761,237.344025 482.707458,236.036606 479.533844,236.108459 
	C473.370392,236.247986 467.202789,236.237274 461.036926,236.234344 
	C385.872711,236.198547 310.708466,236.153931 235.544235,236.108612 
	C223.340729,236.101257 223.340744,236.094543 223.329681,248.161407 
	C223.322678,255.801422 223.321915,255.804932 230.882004,257.399872 
	C276.745422,267.075714 305.830811,309.436340 300.128998,355.158020 
	C295.805878,389.824493 269.824951,418.943604 235.999435,428.187225 
	C231.907028,429.305573 226.323608,428.241119 224.045914,431.923553 
	C221.794373,435.563721 223.736176,440.726532 223.271820,445.180389 
	C222.800629,449.699707 224.718613,450.817902 229.001083,450.784790 
	C251.832870,450.608002 274.666779,450.702423 298.499969,450.703369 
M774.873718,108.400436 
	C777.825073,108.090706 779.332397,106.485725 779.366699,103.484993 
	C779.399170,100.655708 779.610168,97.823936 779.533997,94.998871 
	C779.356567,88.414940 779.305725,88.420731 772.832764,88.420883 
	C695.027405,88.422684 617.221985,88.425705 539.416626,88.421120 
	C527.245422,88.420395 527.553345,88.414497 527.124756,100.552032 
	C526.932251,106.002533 528.632629,108.001984 533.984802,109.005928 
	C555.226624,112.990417 572.684143,124.014084 585.081055,141.379440 
	C605.579102,170.092438 608.022217,200.927017 592.173218,232.774902 
	C590.049622,237.042023 587.301514,240.998352 584.764648,245.228683 
	C586.164673,246.581467 587.287659,247.815414 588.558411,248.871643 
	C602.939331,260.824890 614.339478,275.312988 623.854553,291.259430 
	C626.359863,295.458069 629.091248,296.781097 633.777100,296.763000 
	C677.594055,296.593903 721.411865,296.638947 765.229431,296.632660 
	C780.210449,296.630524 780.142700,296.646637 779.627808,281.722107 
	C779.531616,278.933685 778.752563,277.422577 775.866699,276.936890 
	C772.265625,276.330811 768.650757,275.621399 765.161987,274.561310 
	C723.484741,261.897339 697.050537,219.376251 706.495728,174.716278 
	C713.560913,141.309982 740.546204,114.439674 774.873718,108.400436 
M202.055588,434.582764 
	C202.318771,430.177399 198.844528,430.163788 196.008698,429.526184 
	C163.218018,422.153564 140.725449,403.103577 129.499588,371.139313 
	C116.749069,334.833832 130.897354,292.475067 162.776276,270.983978 
	C173.328659,263.870117 184.790985,259.328888 197.170456,256.841461 
	C199.111877,256.451385 201.577957,256.449097 201.730713,253.844193 
	C202.057922,248.264084 202.354446,242.649323 201.532761,236.857803 
	C200.192932,236.857803 199.373642,236.788940 198.568832,236.867737 
	C164.347443,240.218155 137.204254,256.467224 115.692993,282.708588 
	C94.900757,308.072784 82.874573,337.778900 74.297531,368.973145 
	C63.827068,407.053650 58.929859,445.849213 59.862335,485.443359 
	C60.333385,505.444672 66.539429,522.391174 80.780861,536.609314 
	C98.578232,554.377502 119.781029,560.333801 144.268417,556.502563 
	C173.417969,551.941956 200.516006,523.831299 202.178925,491.822937 
	C203.157104,472.994690 201.712936,454.215729 202.055588,434.582764 
M505.360657,450.500702 
	C505.353333,462.666809 505.122894,474.837769 505.385956,486.998016 
	C505.902802,510.887512 516.051575,529.993103 535.129028,544.201294 
	C552.355896,557.031250 571.692749,559.765381 592.517212,555.792114 
	C618.683655,550.799683 642.889038,526.143188 646.670654,498.816162 
	C649.026978,481.788422 648.187622,464.579102 647.012024,447.442871 
	C644.734314,414.243164 638.247375,381.866699 627.892822,350.263000 
	C621.855103,331.834930 612.760498,314.931335 602.873535,298.275604 
	C591.446960,279.026184 576.318420,263.900238 557.101257,252.797638 
	C552.104614,249.910843 547.168091,246.899826 541.795593,244.516479 
	C531.298706,239.859879 519.971863,239.599930 509.123047,236.954407 
	C506.690033,236.361115 505.289642,237.282074 505.357941,240.031021 
	C505.436584,243.195312 505.666962,246.401260 505.281738,249.521225 
	C504.672607,254.454742 506.823578,256.064728 511.487823,256.901337 
	C525.837646,259.475189 538.972168,264.939575 550.171082,274.614288 
	C558.268005,281.609222 565.564819,289.463593 571.094910,298.468567 
	C580.640503,314.012177 583.755188,331.339935 582.423889,349.505676 
	C580.383301,377.349670 567.713196,399.200287 545.180725,415.388489 
	C535.039185,422.674591 523.716919,427.506683 511.349915,429.446014 
	C506.607025,430.189789 504.783661,432.179962 505.278168,437.010834 
	C505.700226,441.133942 505.363159,445.334778 505.360657,450.500702 
M932.909363,257.387085 
	C927.114441,220.578278 917.000427,185.140274 897.590149,153.036362 
	C877.895081,120.461273 851.064697,97.115341 812.103333,90.729904 
	C798.922302,88.569656 800.377441,87.342346 800.348877,100.058006 
	C800.332581,107.311493 800.338013,107.324928 807.758606,108.829994 
	C824.772339,112.280823 839.316101,120.435455 851.291687,132.803787 
	C869.136902,151.234421 877.371765,173.344467 875.376404,199.127487 
	C873.319336,225.707397 861.062134,246.519135 839.828369,262.196533 
	C829.640320,269.718658 818.308594,274.836395 805.631714,276.513336 
	C801.644897,277.040741 799.926270,278.745636 800.247253,283.047821 
	C800.655029,288.515289 800.273682,294.037598 800.351013,299.534576 
	C800.552124,313.841034 799.287109,328.226746 801.538757,342.432404 
	C809.009338,389.566162 861.706665,415.002777 903.104004,391.291443 
	C922.734192,380.047791 935.600525,363.103516 937.428833,340.294434 
	C939.626282,312.879822 938.286133,285.398529 932.909363,257.387085 
M482.602631,408.887878 
	C486.155273,410.123505 489.876740,409.672150 493.513733,409.861664 
	C522.940125,411.394897 552.676941,389.063141 559.512329,360.486267 
	C565.069397,337.253540 560.038696,316.861115 543.997620,298.961823 
	C527.104980,280.112305 505.893219,274.403870 481.768219,278.136322 
	C465.453461,280.660431 452.436920,289.307404 442.381012,302.440063 
	C426.999634,322.527588 423.962372,344.727112 432.912384,367.933044 
	C441.487793,390.167755 458.804016,403.121948 482.602631,408.887878 
M244.571777,402.140778 
	C264.398926,390.158234 276.986237,373.377411 279.281769,349.773987 
	C282.136078,320.424866 266.566284,295.290405 241.809082,283.275604 
	C215.731415,270.619995 182.130432,276.252472 161.354355,301.010193 
	C136.503952,330.623108 143.244614,378.513397 175.986038,399.007812 
	C198.035095,412.809448 220.657059,413.466736 244.571777,402.140778 
M829.110413,141.387222 
	C813.132751,129.067184 795.038635,126.211327 775.691711,129.877426 
	C748.974548,134.940170 724.588684,162.772903 725.821289,193.888977 
	C726.541260,212.063538 733.150269,227.015778 745.701538,239.278000 
	C761.632874,254.842346 781.273132,259.364227 802.947266,255.621368 
	C830.926392,250.789719 854.298462,223.323380 854.660034,194.968277 
	C854.937500,173.216354 846.468933,155.563873 829.110413,141.387222 
M473.990051,200.719650 
	C469.938843,197.351700 468.589081,193.100098 470.528351,188.213058 
	C472.493683,183.260300 476.545746,181.525375 481.741547,181.649429 
	C488.401123,181.808426 495.068817,181.605515 501.730347,181.717209 
	C504.710449,181.767181 505.942322,180.608368 505.894531,177.602905 
	C505.791260,171.107819 505.825256,164.609268 505.892639,158.113068 
	C505.974274,150.241333 509.900391,145.676498 516.461182,145.682907 
	C523.113464,145.689377 527.032898,150.172211 527.128174,158.043610 
	C527.204712,164.372940 527.255493,170.705963 527.119507,177.033096 
	C527.047302,180.396255 528.200867,181.846497 531.749573,181.731873 
	C538.073120,181.527618 544.408447,181.654892 550.738464,181.692627 
	C558.273071,181.737564 562.956970,185.500900 563.290222,191.710190 
	C563.625488,197.955750 558.810547,202.634750 551.300354,203.037704 
	C546.814575,203.278366 542.305725,203.051178 537.809937,203.151962 
	C526.348572,203.408890 527.174500,200.799988 527.092407,214.286606 
	C527.073181,217.455414 528.431702,218.570175 531.306641,219.254684 
	C542.523376,221.925354 553.305054,225.871643 563.480774,231.316330 
	C565.917236,232.620010 567.407349,232.240555 568.931702,230.120209 
	C579.396301,215.564209 582.945129,199.196396 580.113037,181.801437 
	C575.150208,151.319763 547.240112,129.331863 521.475281,128.543091 
	C501.025787,127.917076 483.565704,133.519394 469.756348,148.410263 
	C453.937347,165.468109 448.993073,185.740753 454.032257,208.581528 
	C455.130188,213.557983 457.257172,214.976349 462.122528,214.865906 
	C474.441925,214.586227 486.776398,214.677872 499.098602,214.928558 
	C506.078979,215.070602 505.924927,215.336029 505.950043,208.393890 
	C505.963654,204.637085 504.822815,202.806244 500.784668,203.105637 
	C497.471680,203.351257 494.121338,203.240311 490.794128,203.113876 
	C485.367523,202.907639 479.744873,204.177261 473.990051,200.719650 
M456.644928,104.167130 
	C446.268005,110.320503 436.913971,117.734093 428.696198,126.593002 
	C409.498657,147.288330 397.627472,172.103851 388.274841,198.332443 
	C386.457764,203.428329 384.903900,208.618088 383.041992,214.337860 
	C400.329681,214.337860 416.682343,214.337860 432.918793,214.337860 
	C433.784912,212.378601 432.910767,210.962540 432.633514,209.561935 
	C430.877991,200.693222 430.363800,191.880661 431.476379,182.802887 
	C435.797821,147.542923 459.981049,119.271713 494.411530,109.813438 
	C506.539185,106.481888 506.421417,106.486168 505.961945,93.811127 
	C505.819916,89.894012 504.251923,88.946732 500.665894,89.528496 
	C485.442291,91.998291 470.775726,96.102371 456.644928,104.167130 
z"/>
<path fill="currentcolor" opacity="1.000000" stroke="none" 
	d="
M108.819527,87.662735 
	C110.965530,75.036095 117.146317,64.943680 125.313667,55.920135 
	C142.599854,36.821815 165.149918,26.998798 189.148346,19.676901 
	C213.726822,12.178024 239.018387,11.587396 264.276611,12.857901 
	C290.758453,14.189954 316.184448,20.782465 339.567902,33.637722 
	C359.054871,44.350853 376.157837,57.945484 383.101746,80.186722 
	C388.407654,97.181496 386.272461,113.750420 376.067078,128.831070 
	C366.533203,142.919495 353.956787,153.559418 338.735260,160.938339 
	C333.739105,163.360306 331.302887,166.281708 330.781433,172.080933 
	C329.953278,181.290283 327.897400,190.392410 326.288086,199.527069 
	C325.432495,204.383331 322.976593,205.621536 318.397705,203.359039 
	C306.308441,197.385513 294.156555,191.520721 282.268402,185.165878 
	C276.441833,182.051285 270.814636,181.404770 264.186493,181.668976 
	C244.779205,182.442673 225.381073,182.468399 206.076248,178.569092 
	C187.481400,174.813217 169.616165,169.342834 153.124802,160.041458 
	C133.534988,148.992508 117.356682,134.615250 110.047844,112.331711 
	C107.425507,104.336586 108.756355,96.176384 108.819527,87.662735 
M305.449158,187.931580 
	C309.822479,190.180756 314.107513,192.637756 318.904816,194.167435 
	C321.570740,184.562027 322.120422,175.091934 323.418732,165.772598 
	C324.067047,161.118866 326.085510,158.728592 329.992401,156.804474 
	C342.156128,150.813934 353.512695,143.583374 362.628845,133.367462 
	C374.836517,119.687134 380.766815,104.033005 376.457581,85.594574 
	C373.200775,71.659523 364.578308,61.142071 353.683746,52.509655 
	C326.838409,31.238461 295.171539,22.900528 261.883087,20.540592 
	C235.899643,18.698532 210.028381,21.020754 185.063477,29.349098 
	C163.178619,36.649929 142.930771,46.568665 127.891914,65.018272 
	C115.064064,80.755417 112.638832,102.273010 122.004814,120.160248 
	C129.650253,134.761566 141.958847,144.495361 155.829041,152.422501 
	C176.328262,164.138306 198.609085,170.448380 222.020340,172.784149 
	C230.256683,173.605896 238.549301,174.254684 246.817032,174.263855 
	C255.600479,174.273621 264.384064,173.414658 273.169373,172.970322 
	C275.608643,172.846954 277.678009,174.058060 279.756927,175.090378 
	C288.109619,179.238007 296.439026,183.432449 305.449158,187.931580 
z"/>
<path fill="currentcolor" opacity="1.000000" stroke="none" 
	d="
M511.844421,334.087616 
	C517.898193,326.208435 525.044373,326.779083 532.093750,330.047211 
	C537.863647,332.722168 540.756287,340.400482 539.200012,347.181976 
	C537.556274,354.344666 527.515076,360.395325 520.549438,358.420502 
	C512.689758,356.192200 507.430023,347.401428 509.585815,339.976471 
	C510.135925,338.081696 510.951843,336.264069 511.844421,334.087616 
M528.785339,340.359985 
	C526.332336,337.621185 523.682068,338.361206 521.268311,340.224670 
	C519.606750,341.507446 519.630005,343.476654 520.690979,345.200348 
	C522.072449,347.444763 524.217407,348.328796 526.708313,347.420288 
	C529.888672,346.260254 530.288513,343.820892 528.785339,340.359985 
z"/>
<path fill="currentcolor" opacity="1.000000" stroke="none" 
	d="
M504.068542,360.690491 
	C510.708160,367.116821 512.271362,374.213348 508.652740,380.511749 
	C504.893433,387.055023 497.554443,389.883301 490.236389,387.608948 
	C483.209106,385.424957 478.708893,377.307831 480.299011,369.684784 
	C481.813202,362.425751 488.714813,357.039429 495.930389,357.801208 
	C498.664185,358.089844 501.633514,358.185516 504.068542,360.690491 
M499.200592,371.268585 
	C497.361694,369.257690 495.815796,366.234253 492.391144,368.530823 
	C490.529419,369.779297 489.260590,371.813202 490.124207,374.085144 
	C491.009918,376.415375 493.126801,377.769165 495.659760,377.425781 
	C498.696442,377.014221 499.499695,374.682098 499.200592,371.268585 
z"/>
<path fill="currentcolor" opacity="1.000000" stroke="none" 
	d="
M504.106384,325.301758 
	C495.423981,330.595398 486.068207,328.615021 481.861389,320.887085 
	C477.644501,313.140625 480.710114,303.478516 488.575714,299.725006 
	C494.861267,296.725464 504.533447,299.567444 508.516968,305.584198 
	C512.289246,311.281891 510.547943,319.547241 504.106384,325.301758 
M494.618011,308.422668 
	C491.027283,309.189728 489.487305,311.476562 490.419769,314.947357 
	C491.004639,317.124329 492.714996,318.750275 495.190948,318.569092 
	C497.556305,318.395996 499.239502,316.904907 499.621277,314.540131 
	C500.150391,311.263000 498.735413,309.094513 494.618011,308.422668 
z"/>
<path fill="currentcolor" opacity="1.000000" stroke="none" 
	d="
M451.787323,349.894135 
	C448.808563,340.947723 451.081238,333.725250 457.773438,330.037598 
	C464.087006,326.558502 472.290924,328.067535 476.758301,333.529694 
	C482.233398,340.223969 481.039185,350.345215 474.197418,355.233826 
	C466.498840,360.734680 457.397552,358.694397 451.787323,349.894135 
M463.951202,338.344055 
	C461.150330,339.185516 460.019623,341.103851 460.337189,343.953552 
	C460.564514,345.993011 461.728485,347.332062 463.673767,347.725037 
	C466.580902,348.312347 469.104004,347.603516 469.699127,344.315125 
	C470.381470,340.544586 468.756348,338.283691 463.951202,338.344055 
z"/>
<path fill="currentcolor" opacity="1.000000" stroke="none" 
	d="
M201.509872,331.346375 
	C203.249680,323.055298 202.379532,315.035950 202.566391,307.056458 
	C202.744781,299.439850 206.494904,294.991089 212.904907,295.033081 
	C219.114670,295.073761 223.242767,299.874969 223.290085,307.206635 
	C223.333099,313.871521 223.565094,320.550629 223.214539,327.197144 
	C222.986679,331.517700 224.761307,332.714600 228.672775,332.633820 
	C235.668045,332.489258 242.669128,332.541931 249.666672,332.616791 
	C256.419983,332.688995 260.705902,336.660553 260.832611,342.794891 
	C260.950256,348.489990 256.193634,353.184082 249.767868,353.340515 
	C242.606873,353.514862 235.435349,353.534668 228.275238,353.352631 
	C224.634048,353.260040 223.155396,354.523621 223.255478,358.250153 
	C223.438828,365.076935 223.330627,371.912476 223.292664,378.744080 
	C223.252457,385.978699 219.139343,390.608093 212.765213,390.677582 
	C206.390045,390.747070 202.612228,386.300018 202.580215,378.622345 
	C202.553131,372.123993 202.534698,365.625061 202.590683,359.127045 
	C202.625839,355.046448 201.112198,353.121643 196.635590,353.332672 
	C189.819550,353.653931 182.974777,353.476196 176.144775,353.360168 
	C169.451553,353.246521 164.887421,349.078156 164.784271,343.216278 
	C164.680130,337.298462 168.932617,332.641022 175.540909,332.360687 
	C182.348831,332.071838 189.186279,332.520294 196.011353,332.565094 
	C197.795822,332.576813 199.707138,333.033386 201.509872,331.346375 
z"/>
<path fill="currentcolor" opacity="1.000000" stroke="none" 
	d="
M783.497925,176.975327 
	C776.673279,172.388885 774.066345,166.722244 775.571045,160.363907 
	C777.143616,153.718658 781.655640,149.673004 788.390442,148.869492 
	C797.009583,147.841156 804.575500,154.224991 805.058777,162.933609 
	C805.512756,171.113419 799.013367,178.071289 790.681946,178.365784 
	C788.309082,178.449661 786.038940,178.083633 783.497925,176.975327 
M785.782227,164.999649 
	C787.321838,168.163849 789.858826,168.755844 792.706909,167.185318 
	C794.843262,166.007278 795.305969,163.751602 794.224854,161.611099 
	C793.015747,159.217377 790.795410,158.610306 788.360718,159.560684 
	C786.300659,160.364838 785.551086,162.166885 785.782227,164.999649 
z"/>
<path fill="currentcolor" opacity="1.000000" stroke="none" 
	d="
M787.408691,206.757721 
	C801.302917,204.712280 808.553101,218.707901 803.285156,228.261841 
	C800.025818,234.172958 793.478516,237.127365 786.805847,235.596130 
	C779.763611,233.980103 775.272705,228.563858 775.043091,221.409729 
	C774.827698,214.698730 779.398376,209.102859 787.408691,206.757721 
M789.707886,225.704758 
	C793.439636,225.559296 795.397644,223.690735 794.413574,219.964264 
	C793.658386,217.104568 791.339111,216.244171 788.524658,217.138397 
	C786.777161,217.693619 785.784302,219.094482 785.559570,220.798279 
	C785.224915,223.335205 786.837830,224.712173 789.707886,225.704758 
z"/>
<path fill="currentcolor" opacity="1.000000" stroke="none" 
	d="
M833.567261,189.766663 
	C834.347290,197.912476 830.870117,203.771332 824.046326,206.342117 
	C817.757324,208.711441 811.076721,206.766235 807.127319,201.415817 
	C802.840820,195.608704 802.837585,188.888474 807.118591,183.422928 
	C811.414612,177.938217 818.559082,176.071442 825.063843,178.889511 
	C829.663757,180.882355 832.323242,184.555893 833.567261,189.766663 
M821.838379,188.813141 
	C819.126099,186.872971 816.818054,187.517014 815.071777,190.115829 
	C813.836853,191.953537 814.009766,193.918991 815.629944,195.527512 
	C817.390930,197.275925 819.625183,197.497360 821.502319,196.113785 
	C823.952087,194.308136 824.492371,191.855652 821.838379,188.813141 
z"/>
<path fill="currentcolor" opacity="1.000000" stroke="none" 
	d="
M746.727783,189.456497 
	C749.860046,179.712723 757.259827,175.658691 766.055603,178.457977 
	C773.703064,180.891815 777.779907,188.902176 775.393738,196.806046 
	C773.299988,203.741409 766.412354,208.174744 759.235291,207.206711 
	C751.859009,206.211807 746.778870,200.451233 746.616516,192.874191 
	C746.595215,191.878891 746.665039,190.881653 746.727783,189.456497 
M762.133850,187.920181 
	C758.925171,187.545685 756.993286,189.082916 756.603943,192.148926 
	C756.331665,194.292816 757.468994,196.035614 759.655151,196.651688 
	C761.907715,197.286453 764.142700,196.892746 765.200806,194.645126 
	C766.502991,191.879044 765.802124,189.491959 762.133850,187.920181 
z"/>
<path fill="currentcolor" opacity="1.000000" stroke="none" 
	d="
M314.538971,123.633942 
	C302.235565,116.468399 297.225494,105.772079 299.065887,92.376877 
	C300.725372,80.298721 308.314911,71.997726 319.655579,68.271233 
	C341.266937,61.169849 359.769867,79.076225 359.506470,97.593536 
	C359.190125,119.831291 334.724365,134.944519 314.538971,123.633942 
M324.250977,75.364716 
	C315.358063,77.853889 309.093750,83.240341 307.395752,92.488869 
	C305.544220,102.573631 308.964447,110.693039 317.845673,116.446938 
	C325.596039,121.468163 337.823883,120.172485 344.929718,113.168243 
	C351.687103,106.507462 353.397217,93.942726 348.814423,86.441399 
	C343.318970,77.446274 335.299744,74.120079 324.250977,75.364716 
z"/>
<path fill="currentcolor" opacity="1.000000" stroke="none" 
	d="
M274.206848,72.773460 
	C291.827484,91.103210 282.262390,118.907745 260.900421,123.649452 
	C242.626328,127.705734 228.107315,119.785301 223.369049,101.427658 
	C218.983200,84.435387 229.505524,69.222984 245.682419,65.235054 
	C256.032990,62.683434 265.794434,65.152168 274.206848,72.773460 
M262.099670,74.298386 
	C251.472351,70.203918 242.190598,72.564880 235.319504,81.110359 
	C227.625565,90.679207 229.561325,104.741714 239.643188,112.520287 
	C248.851288,119.624702 263.507355,117.669708 270.402496,108.417267 
	C279.239838,96.558647 276.104187,82.547554 262.099670,74.298386 
z"/>
<path fill="currentcolor" opacity="1.000000" stroke="none" 
	d="
M157.069778,73.051376 
	C170.768967,60.159195 196.731644,63.718918 204.798782,81.946404 
	C213.470154,101.539177 202.404190,123.964027 180.038116,125.436745 
	C163.493530,126.526131 151.617798,115.888718 148.516312,103.444603 
	C145.663132,91.996742 148.264984,81.749542 157.069778,73.051376 
M159.292923,108.154701 
	C159.911713,108.937416 160.478546,109.768669 161.157196,110.495491 
	C169.761505,119.710777 184.624741,120.346184 193.372757,111.607826 
	C202.080643,102.909584 202.169479,87.278587 192.725540,78.964821 
	C184.895706,72.071999 172.150284,71.267097 164.221420,77.677750 
	C154.674133,85.396919 152.695007,96.533508 159.292923,108.154701 
z"/>
</svg>