<svg viewBox="0 0 62 61" xmlns="http://www.w3.org/2000/svg">
<path d="M48.9584 20.9688H45.7813V13.5547C45.7813 8.5756 42.9244 5.71875 37.9453 5.71875H14.2214C9.24229 5.71875 6.38544 8.5756 6.38544 13.5547V43.2083C6.38544 43.9785 6.85028 44.6749 7.56195 44.9697C7.79833 45.0688 8.04515 45.1146 8.29169 45.1146C8.78731 45.1146 9.27539 44.9215 9.63884 44.5555L15.0095 39.1824H21.633V43.2083C21.633 47.6512 24.1797 50.1979 28.6225 50.1979H48.1653L52.6896 54.7222C53.0556 55.0882 53.5411 55.2812 54.0367 55.2812C54.2833 55.2812 54.5295 55.2329 54.7658 55.1364C55.4775 54.8415 55.943 54.1451 55.943 53.375V27.9583C55.9481 23.5155 53.4012 20.9688 48.9584 20.9688ZM14.2214 35.3724C13.7156 35.3724 13.2301 35.5731 12.8743 35.9314L10.1979 38.6078V13.5597C10.1979 10.6622 11.3239 9.53621 14.2214 9.53621H37.9453C40.8428 9.53621 41.9688 10.6647 41.9688 13.5597V31.3514C41.9688 34.2463 40.8428 35.3748 37.9453 35.3748H14.2214V35.3724ZM52.1354 48.772L50.3055 46.942C49.9471 46.5837 49.4641 46.3829 48.9584 46.3829H28.625C26.3096 46.3829 25.4479 45.5213 25.4479 43.2059V39.1824H37.9453C42.9244 39.1824 45.7813 36.3255 45.7813 31.3464V24.7812H48.9584C51.2738 24.7812 52.1354 25.6429 52.1354 27.9583V48.772ZM28.6759 22.875C28.6759 24.278 27.5398 25.4167 26.1342 25.4167C24.7312 25.4167 23.5795 24.278 23.5795 22.875C23.5795 21.472 24.7058 20.3333 26.1088 20.3333H26.1342C27.5372 20.3333 28.6759 21.472 28.6759 22.875ZM36.3009 22.875C36.3009 24.278 35.1648 25.4167 33.7592 25.4167C32.3562 25.4167 31.2045 24.278 31.2045 22.875C31.2045 21.472 32.3308 20.3333 33.7338 20.3333H33.7592C35.1622 20.3333 36.3009 21.472 36.3009 22.875ZM21.0509 22.875C21.0509 24.278 19.9148 25.4167 18.5092 25.4167C17.1062 25.4167 15.9545 24.278 15.9545 22.875C15.9545 21.472 17.0808 20.3333 18.4838 20.3333H18.5092C19.9122 20.3333 21.0509 21.472 21.0509 22.875Z" />
</svg>
