<svg version="1.1" id="Layer_1" xmlns="http://www.w3.org/2000/svg" xmlns:xlink="http://www.w3.org/1999/xlink" x="0px" y="0px"
	 width="100%" viewBox="0 0 535 421" enable-background="new 0 0 535 421" xml:space="preserve">
<path fill="#FFFFFF" opacity="1.000000" stroke="none" 
	d="
M323.000000,422.000000 
	C215.333328,422.000000 108.166664,422.000000 1.000000,422.000000 
	C1.000000,281.666656 1.000000,141.333328 1.000000,1.000000 
	C179.333328,1.000000 357.666656,1.000000 536.000000,1.000000 
	C536.000000,141.333328 536.000000,281.666656 536.000000,422.000000 
	C465.166656,422.000000 394.333344,422.000000 323.000000,422.000000 
M294.496155,338.078583 
	C287.497070,338.078888 280.497864,338.098938 273.498901,338.069916 
	C270.607361,338.057922 267.885345,338.390076 267.989410,342.137543 
	C268.083862,345.537231 270.671356,345.897217 273.347534,345.896698 
	C281.846558,345.895050 290.345581,345.897247 298.844604,345.897766 
	C302.275757,345.897980 305.706879,345.897797 309.247986,345.897797 
	C309.339966,347.999329 309.445526,349.322540 309.448273,350.645966 
	C309.470032,361.144623 309.301270,371.649078 309.657471,382.135956 
	C309.713440,383.783539 312.122742,385.351166 313.443939,386.955750 
	C314.672333,385.321136 316.759888,383.784943 316.960571,382.032623 
	C317.469238,377.591248 317.132233,373.052948 317.132568,368.553467 
	C317.133179,361.116394 317.132721,353.679321 317.132721,345.897766 
	C328.644135,345.897766 339.457062,345.996887 350.266174,345.838623 
	C353.599335,345.789825 358.806183,347.478912 358.742767,341.847351 
	C358.684509,336.672821 353.714386,338.167908 350.492340,338.129059 
	C339.545746,337.997070 328.596558,338.078613 317.464478,338.078613 
	C317.464478,326.789246 317.464478,316.067322 317.464478,305.488159 
	C354.156006,302.040741 381.047150,284.481476 395.197205,250.631790 
	C409.341034,216.797119 402.650330,185.356354 379.410583,156.753494 
	C403.868011,132.986343 428.220581,109.321114 451.993042,86.219589 
	C451.993042,103.280182 452.027283,121.608795 451.958679,139.937027 
	C451.947540,142.918945 452.483246,145.598206 455.863312,145.750351 
	C459.276398,145.903961 460.054321,143.398224 460.044708,140.314240 
	C459.977295,118.650276 459.978149,96.985916 460.037445,75.321907 
	C460.047852,71.521881 458.404663,69.951836 454.632782,69.962616 
	C433.135437,70.024055 411.637665,70.030693 390.140442,69.951065 
	C387.012848,69.939484 384.665771,70.777885 384.652924,74.153824 
	C384.639191,77.760315 387.305756,78.066437 390.268250,78.048027 
	C404.266083,77.961067 418.264771,78.009346 432.263153,78.009392 
	C436.658356,78.009407 441.053528,78.009392 445.630585,78.009392 
	C421.228088,102.449959 397.244171,126.471268 373.276947,150.475876 
	C339.951416,124.230064 303.626312,118.905594 266.857941,141.643127 
	C232.260406,163.038193 218.398666,196.295761 227.435562,235.982422 
	C237.092850,278.393677 266.539398,300.459625 309.157349,305.694153 
	C309.157349,316.333069 309.157349,326.929016 309.157349,338.078644 
	C304.410919,338.078644 299.952179,338.078644 294.496155,338.078583 
z"/>
<path fill="#4688F4" opacity="1.000000" stroke="none" 
	d="
M294.994812,338.078613 
	C299.952179,338.078644 304.410919,338.078644 309.157349,338.078644 
	C309.157349,326.929016 309.157349,316.333069 309.157349,305.694153 
	C266.539398,300.459625 237.092850,278.393677 227.435562,235.982422 
	C218.398666,196.295761 232.260406,163.038193 266.857941,141.643127 
	C303.626312,118.905594 339.951416,124.230064 373.276947,150.475876 
	C397.244171,126.471268 421.228088,102.449959 445.630585,78.009392 
	C441.053528,78.009392 436.658356,78.009407 432.263153,78.009392 
	C418.264771,78.009346 404.266083,77.961067 390.268250,78.048027 
	C387.305756,78.066437 384.639191,77.760315 384.652924,74.153824 
	C384.665771,70.777885 387.012848,69.939484 390.140442,69.951065 
	C411.637665,70.030693 433.135437,70.024055 454.632782,69.962616 
	C458.404663,69.951836 460.047852,71.521881 460.037445,75.321907 
	C459.978149,96.985916 459.977295,118.650276 460.044708,140.314240 
	C460.054321,143.398224 459.276398,145.903961 455.863312,145.750351 
	C452.483246,145.598206 451.947540,142.918945 451.958679,139.937027 
	C452.027283,121.608795 451.993042,103.280182 451.993042,86.219589 
	C428.220581,109.321114 403.868011,132.986343 379.410583,156.753494 
	C402.650330,185.356354 409.341034,216.797119 395.197205,250.631790 
	C381.047150,284.481476 354.156006,302.040741 317.464478,305.488159 
	C317.464478,316.067322 317.464478,326.789246 317.464478,338.078613 
	C328.596558,338.078613 339.545746,337.997070 350.492340,338.129059 
	C353.714386,338.167908 358.684509,336.672821 358.742767,341.847351 
	C358.806183,347.478912 353.599335,345.789825 350.266174,345.838623 
	C339.457062,345.996887 328.644135,345.897766 317.132721,345.897766 
	C317.132721,353.679321 317.133179,361.116394 317.132568,368.553467 
	C317.132233,373.052948 317.469238,377.591248 316.960571,382.032623 
	C316.759888,383.784943 314.672333,385.321136 313.443939,386.955750 
	C312.122742,385.351166 309.713440,383.783539 309.657471,382.135956 
	C309.301270,371.649078 309.470032,361.144623 309.448273,350.645966 
	C309.445526,349.322540 309.339966,347.999329 309.247986,345.897797 
	C305.706879,345.897797 302.275757,345.897980 298.844604,345.897766 
	C290.345581,345.897247 281.846558,345.895050 273.347534,345.896698 
	C270.671356,345.897217 268.083862,345.537231 267.989410,342.137543 
	C267.885345,338.390076 270.607361,338.057922 273.498901,338.069916 
	C280.497864,338.098938 287.497070,338.078888 294.994812,338.078613 
M375.266296,267.728210 
	C384.072296,256.784698 390.321075,244.735519 392.341339,230.598969 
	C397.046539,197.674515 386.712311,170.923782 359.806244,151.091293 
	C343.794678,139.289139 325.694916,134.945709 305.856171,136.766830 
	C293.543396,137.897095 281.952393,141.086609 271.737396,147.862915 
	C244.117752,166.184906 230.714218,191.704865 233.898544,225.229065 
	C236.526093,252.891617 250.828995,273.469330 274.386261,286.715027 
	C308.510742,305.902435 349.433746,297.743744 375.266296,267.728210 
z"/>
<path fill="#FFFFFF" opacity="1.000000" stroke="none" 
	d="
M375.036407,267.999695 
	C349.433746,297.743744 308.510742,305.902435 274.386261,286.715027 
	C250.828995,273.469330 236.526093,252.891617 233.898544,225.229065 
	C230.714218,191.704865 244.117752,166.184906 271.737396,147.862915 
	C281.952393,141.086609 293.543396,137.897095 305.856171,136.766830 
	C325.694916,134.945709 343.794678,139.289139 359.806244,151.091293 
	C386.712311,170.923782 397.046539,197.674515 392.341339,230.598969 
	C390.321075,244.735519 384.072296,256.784698 375.036407,267.999695 
z"/>
</svg>