<svg width="26" height="26" viewBox="0 0 26 26" fill="none" xmlns="http://www.w3.org/2000/svg">
<path d="M13 0.668324C6.084 0.668324 0.458336 6.29516 0.458336 13.21C0.458336 20.1248 6.084 25.7517 13 25.7517C19.916 25.7517 25.5417 20.1248 25.5417 13.21C25.5417 6.29516 19.916 0.668324 13 0.668324ZM13 24.0017C7.04884 24.0017 2.20834 19.1612 2.20834 13.21C2.20834 7.25882 7.04884 2.41832 13 2.41832C18.9512 2.41832 23.7917 7.25882 23.7917 13.21C23.7917 19.1612 18.9512 24.0017 13 24.0017ZM17.9583 13.21C17.9583 13.693 17.5663 14.085 17.0833 14.085H13.875V17.2933C13.875 17.7763 13.483 18.1683 13 18.1683C12.517 18.1683 12.125 17.7763 12.125 17.2933V14.085H8.91667C8.43367 14.085 8.04167 13.693 8.04167 13.21C8.04167 12.727 8.43367 12.335 8.91667 12.335H12.125V9.12666C12.125 8.64366 12.517 8.25166 13 8.25166C13.483 8.25166 13.875 8.64366 13.875 9.12666V12.335H17.0833C17.5663 12.335 17.9583 12.727 17.9583 13.21Z" fill="#2972FF"/>
</svg>
