<svg viewBox="0 0 62 61" xmlns="http://www.w3.org/2000/svg">
<path d="M55.0555 52.0279L45.293 42.2654C48.5565 38.3944 50.5313 33.4051 50.5313 27.9583C50.5313 15.6948 40.5552 5.71875 28.2917 5.71875C16.0282 5.71875 6.05212 15.6948 6.05212 27.9583C6.05212 40.2219 16.0282 50.1979 28.2917 50.1979C33.7385 50.1979 38.7279 48.223 42.5988 44.9595L52.3612 54.7221C52.7323 55.0932 53.2204 55.2812 53.7084 55.2812C54.1964 55.2812 54.6844 55.0957 55.0555 54.7221C55.8002 53.9799 55.8002 52.7726 55.0555 52.0279ZM9.86462 27.9583C9.86462 17.7968 18.1301 9.53125 28.2917 9.53125C38.4533 9.53125 46.7188 17.7968 46.7188 27.9583C46.7188 38.1199 38.4533 46.3854 28.2917 46.3854C18.1301 46.3854 9.86462 38.1199 9.86462 27.9583Z"/>
</svg>
