<svg viewBox="0 0 51 51"xmlns="http://www.w3.org/2000/svg">
<path d="M25.5 15.9688C20.2439 15.9688 15.9688 20.2438 15.9688 25.5C15.9688 30.7562 20.2439 35.0313 25.5 35.0313C30.7562 35.0313 35.0313 30.7562 35.0313 25.5C35.0313 20.2438 30.7562 15.9688 25.5 15.9688ZM25.5 31.2188C22.3458 31.2188 19.7813 28.6542 19.7813 25.5C19.7813 22.3458 22.3458 19.7813 25.5 19.7813C28.6542 19.7813 31.2188 22.3458 31.2188 25.5C31.2188 28.6542 28.6542 31.2188 25.5 31.2188ZM48.9037 30.4639C47.1398 29.4421 46.0418 27.541 46.0392 25.5C46.0367 23.4641 47.1271 21.5655 48.9139 20.5311C50.2228 19.7711 50.6702 18.0859 49.9128 16.7744L45.6631 9.43921C44.9057 8.13025 43.2205 7.68041 41.909 8.43528C40.1324 9.45957 37.9237 9.45958 36.142 8.42512C34.3857 7.40591 33.2928 5.51235 33.2928 3.48156C33.2928 1.9591 32.0525 0.721313 30.53 0.721313H20.4777C18.9527 0.721313 17.7149 1.9591 17.7149 3.48156C17.7149 5.51235 16.622 7.40587 14.8606 8.43016C13.084 9.45954 10.8778 9.46206 9.1012 8.43776C7.78716 7.68035 6.1046 8.13281 5.34719 9.44177L1.09241 16.7847C0.33499 18.0936 0.784832 19.7761 2.1065 20.5437C3.86787 21.5629 4.96591 23.4616 4.97099 25.4974C4.97608 27.5359 3.88315 29.4396 2.0989 30.474C1.46348 30.8426 1.00599 31.4348 0.817903 32.1464C0.629819 32.8556 0.726425 33.5952 1.09497 34.2332L5.34207 41.5634C6.09948 42.8749 7.78462 43.3298 9.1012 42.5698C10.8778 41.5456 13.0815 41.5481 14.8327 42.5622L14.8377 42.5647C14.8453 42.5698 14.853 42.5749 14.8632 42.58C16.6194 43.5992 17.7098 45.4927 17.7072 47.5261C17.7072 49.0485 18.945 50.2864 20.4675 50.2864H30.53C32.0525 50.2864 33.2902 49.0485 33.2902 47.5286C33.2902 45.4953 34.3831 43.6017 36.1471 42.5774C37.9211 41.5481 40.1273 41.543 41.9065 42.5698C43.218 43.3273 44.9006 42.8774 45.6605 41.5684L49.9152 34.2256C50.6701 32.9115 50.2203 31.2264 48.9037 30.4639ZM42.8621 38.7853C40.0917 37.578 36.8765 37.7432 34.2281 39.2759C31.6025 40.7983 29.8692 43.4899 29.5337 46.4688H21.4588C21.1284 43.4899 19.3898 40.7932 16.7643 39.2733C14.121 37.7407 10.9007 37.578 8.13792 38.7853L4.89475 33.186C7.32204 31.3992 8.78854 28.5322 8.77837 25.4822C8.77075 22.4526 7.30677 19.6059 4.89219 17.8191L8.13792 12.2172C10.9032 13.422 14.1235 13.2593 16.772 11.7241C19.395 10.2042 21.1283 7.51011 21.4638 4.53381H29.5337C29.8666 7.51265 31.6026 10.2043 34.2332 11.7293C36.874 13.2619 40.0943 13.4245 42.8621 12.2198L46.1079 17.8191C43.6857 19.6033 42.2216 22.4652 42.2267 25.5102C42.2293 28.5449 43.6933 31.3967 46.1104 33.1885L42.8621 38.7853Z" />
</svg>
