<svg version="1.1" id="Layer_1" xmlns="http://www.w3.org/2000/svg" xmlns:xlink="http://www.w3.org/1999/xlink" x="0px" y="0px"
	 width="100%" viewBox="0 0 716 525" enable-background="new 0 0 716 525" xml:space="preserve">
<path fill="#FFFFFF" opacity="1.000000" stroke="none" 
	d="
M458.000000,526.000000 
	C305.333374,526.000000 153.166718,526.000000 1.000061,526.000000 
	C1.000041,351.000061 1.000041,176.000122 1.000020,1.000132 
	C239.666565,1.000088 478.333130,1.000088 716.999756,1.000044 
	C716.999878,175.999863 716.999878,350.999725 716.999939,525.999756 
	C630.833313,526.000000 544.666687,526.000000 458.000000,526.000000 
M543.126404,250.621552 
	C546.282288,247.188797 549.685730,243.950211 552.554382,240.292206 
	C573.264038,213.884171 583.187805,183.962036 580.012573,150.410736 
	C575.180420,99.352417 548.627625,62.689041 501.613617,43.569229 
	C452.921570,23.766943 407.130768,32.388981 368.041321,68.033928 
	C333.541138,99.493973 320.762421,139.766586 330.004547,185.005295 
	C340.754181,237.623001 374.078522,270.604675 426.228180,284.037476 
	C433.409912,285.887329 440.893921,286.563690 448.226135,287.781372 
	C448.226135,303.399445 448.226135,319.123657 448.226135,335.384155 
	C446.017151,335.384155 444.221161,335.384155 442.425201,335.384155 
	C427.596741,335.384216 412.768280,335.373962 397.939880,335.398773 
	C396.284180,335.401550 394.203583,335.020660 393.070892,335.846954 
	C391.277100,337.155487 388.963745,339.365021 389.011444,341.135590 
	C389.060150,342.943787 391.465729,344.985260 393.279755,346.331329 
	C394.275146,347.069946 396.178650,346.640991 397.672791,346.642426 
	C413.167694,346.657104 428.663361,346.736084 444.156860,346.588409 
	C447.629639,346.555298 448.769684,347.642456 448.712830,351.148193 
	C448.526428,362.641388 448.640656,374.139465 448.645081,385.635681 
	C448.646881,390.300690 448.606079,394.966797 448.691986,399.630402 
	C448.755676,403.088684 450.468872,405.598145 454.018555,405.662476 
	C457.796173,405.730927 459.629272,403.214050 459.813690,399.526428 
	C459.871887,398.362915 459.831543,397.194305 459.831604,396.028046 
	C459.832275,382.365875 459.832092,368.703735 459.832123,355.041565 
	C459.832123,352.427155 459.832092,349.812744 459.832092,346.651276 
	C462.559479,346.651276 464.677887,346.651276 466.796295,346.651245 
	C481.624725,346.651093 496.453308,346.616852 511.281525,346.672913 
	C515.408752,346.688507 519.236389,346.262695 519.771057,341.156006 
	C520.169678,337.348358 517.057434,335.418335 511.074646,335.385193 
	C510.075012,335.379669 509.075317,335.384216 508.075653,335.384216 
	C493.913666,335.384155 479.751648,335.392853 465.589691,335.373169 
	C463.822205,335.370697 462.054932,335.218292 460.126526,335.127808 
	C460.126526,318.929230 460.126526,303.197845 460.126526,287.514435 
	C501.655914,280.924286 518.440613,273.494812 543.126404,250.621552 
M77.229446,123.722618 
	C52.793640,145.503571 43.505737,172.537704 48.909271,204.782639 
	C51.629246,221.013779 58.959736,234.795181 70.087349,246.766541 
	C84.724022,262.513031 102.809868,271.900635 124.040451,273.734833 
	C153.551163,276.284393 178.774384,266.498230 197.923798,243.479599 
	C217.504791,219.942215 222.501801,192.981964 214.405594,163.635498 
	C211.011322,151.332199 204.518158,140.575134 196.931625,132.413956 
	C219.821732,108.756668 242.433365,85.387199 265.990540,61.040493 
	C265.990540,64.043243 265.990509,65.636787 265.990509,67.230331 
	C265.990479,82.889328 266.032410,98.548523 265.954834,114.207138 
	C265.939484,117.306763 266.278259,120.563438 269.953156,120.120041 
	C271.491577,119.934425 273.746277,116.436806 273.775208,114.417740 
	C274.069153,93.931984 273.945618,73.440514 274.002289,52.950821 
	C274.013336,48.957664 272.084167,47.221535 268.230194,47.226097 
	C247.740387,47.250347 227.250473,47.228275 206.760910,47.306259 
	C204.081451,47.316460 201.091858,47.556713 201.043869,51.321438 
	C200.992722,55.335049 204.039810,55.008839 206.731262,55.009541 
	C222.723419,55.013714 238.715591,55.011665 254.707748,55.011711 
	C256.281830,55.011715 257.855896,55.011711 259.804413,55.011711 
	C236.068176,78.523567 212.829498,101.542580 189.555649,124.596420 
	C152.400848,92.871033 104.780838,100.037132 77.229446,123.722618 
z"/>
<path fill="#4688F4" opacity="1.000000" stroke="none" 
	d="
M542.862854,250.857178 
	C518.440613,273.494812 501.655914,280.924286 460.126526,287.514435 
	C460.126526,303.197845 460.126526,318.929230 460.126526,335.127808 
	C462.054932,335.218292 463.822205,335.370697 465.589691,335.373169 
	C479.751648,335.392853 493.913666,335.384155 508.075653,335.384216 
	C509.075317,335.384216 510.075012,335.379669 511.074646,335.385193 
	C517.057434,335.418335 520.169678,337.348358 519.771057,341.156006 
	C519.236389,346.262695 515.408752,346.688507 511.281525,346.672913 
	C496.453308,346.616852 481.624725,346.651093 466.796295,346.651245 
	C464.677887,346.651276 462.559479,346.651276 459.832092,346.651276 
	C459.832092,349.812744 459.832123,352.427155 459.832123,355.041565 
	C459.832092,368.703735 459.832275,382.365875 459.831604,396.028046 
	C459.831543,397.194305 459.871887,398.362915 459.813690,399.526428 
	C459.629272,403.214050 457.796173,405.730927 454.018555,405.662476 
	C450.468872,405.598145 448.755676,403.088684 448.691986,399.630402 
	C448.606079,394.966797 448.646881,390.300690 448.645081,385.635681 
	C448.640656,374.139465 448.526428,362.641388 448.712830,351.148193 
	C448.769684,347.642456 447.629639,346.555298 444.156860,346.588409 
	C428.663361,346.736084 413.167694,346.657104 397.672791,346.642426 
	C396.178650,346.640991 394.275146,347.069946 393.279755,346.331329 
	C391.465729,344.985260 389.060150,342.943787 389.011444,341.135590 
	C388.963745,339.365021 391.277100,337.155487 393.070892,335.846954 
	C394.203583,335.020660 396.284180,335.401550 397.939880,335.398773 
	C412.768280,335.373962 427.596741,335.384216 442.425201,335.384155 
	C444.221161,335.384155 446.017151,335.384155 448.226135,335.384155 
	C448.226135,319.123657 448.226135,303.399445 448.226135,287.781372 
	C440.893921,286.563690 433.409912,285.887329 426.228180,284.037476 
	C374.078522,270.604675 340.754181,237.623001 330.004547,185.005295 
	C320.762421,139.766586 333.541138,99.493973 368.041321,68.033928 
	C407.130768,32.388981 452.921570,23.766943 501.613617,43.569229 
	C548.627625,62.689041 575.180420,99.352417 580.012573,150.410736 
	C583.187805,183.962036 573.264038,213.884171 552.554382,240.292206 
	C549.685730,243.950211 546.282288,247.188797 542.862854,250.857178 
M524.619446,68.784958 
	C517.333252,64.475098 510.312225,59.616268 502.716553,55.946957 
	C461.873749,36.216606 411.254669,43.289459 377.767700,73.841675 
	C344.867340,103.858658 332.293488,141.281738 341.067810,184.938248 
	C347.676605,217.819916 366.523041,242.868698 395.259552,259.966705 
	C425.264984,277.819733 457.482635,281.274689 490.430023,270.177460 
	C526.747681,257.945068 551.621887,233.005951 563.816040,196.631714 
	C573.394897,168.058731 571.559204,139.585907 558.898926,112.013931 
	C551.101868,95.033234 539.355774,81.182571 524.619446,68.784958 
z"/>
<path fill="#4788F4" opacity="1.000000" stroke="none" 
	d="
M77.493332,123.486008 
	C104.780838,100.037132 152.400848,92.871033 189.555649,124.596420 
	C212.829498,101.542580 236.068176,78.523567 259.804413,55.011711 
	C257.855896,55.011711 256.281830,55.011715 254.707748,55.011711 
	C238.715591,55.011665 222.723419,55.013714 206.731262,55.009541 
	C204.039810,55.008839 200.992722,55.335049 201.043869,51.321438 
	C201.091858,47.556713 204.081451,47.316460 206.760910,47.306259 
	C227.250473,47.228275 247.740387,47.250347 268.230194,47.226097 
	C272.084167,47.221535 274.013336,48.957664 274.002289,52.950821 
	C273.945618,73.440514 274.069153,93.931984 273.775208,114.417740 
	C273.746277,116.436806 271.491577,119.934425 269.953156,120.120041 
	C266.278259,120.563438 265.939484,117.306763 265.954834,114.207138 
	C266.032410,98.548523 265.990479,82.889328 265.990509,67.230331 
	C265.990509,65.636787 265.990540,64.043243 265.990540,61.040493 
	C242.433365,85.387199 219.821732,108.756668 196.931625,132.413956 
	C204.518158,140.575134 211.011322,151.332199 214.405594,163.635498 
	C222.501801,192.981964 217.504791,219.942215 197.923798,243.479599 
	C178.774384,266.498230 153.551163,276.284393 124.040451,273.734833 
	C102.809868,271.900635 84.724022,262.513031 70.087349,246.766541 
	C58.959736,234.795181 51.629246,221.013779 48.909271,204.782639 
	C43.505737,172.537704 52.793640,145.503571 77.493332,123.486008 
M55.099651,192.142563 
	C55.365650,193.784271 55.727356,195.416962 55.883278,197.069061 
	C58.213657,221.760635 70.522896,240.425659 90.834236,253.947647 
	C106.695335,264.506958 124.293594,267.402496 143.150787,265.284760 
	C161.023758,263.277557 175.887558,255.360428 188.074341,242.862366 
	C200.141098,230.487366 207.563309,215.493134 209.424713,197.866058 
	C211.643188,176.857330 206.888000,157.828323 193.819855,141.349396 
	C176.119949,119.029892 152.921799,109.133423 124.276505,111.803154 
	C105.681213,113.536232 90.156204,121.390816 77.317162,134.371445 
	C61.861462,149.997604 54.982960,169.348190 55.099651,192.142563 
z"/>
<path fill="#FFFFFF" opacity="1.000000" stroke="none" 
	d="
M524.892578,69.018753 
	C539.355774,81.182571 551.101868,95.033234 558.898926,112.013931 
	C571.559204,139.585907 573.394897,168.058731 563.816040,196.631714 
	C551.621887,233.005951 526.747681,257.945068 490.430023,270.177460 
	C457.482635,281.274689 425.264984,277.819733 395.259552,259.966705 
	C366.523041,242.868698 347.676605,217.819916 341.067810,184.938248 
	C332.293488,141.281738 344.867340,103.858658 377.767700,73.841675 
	C411.254669,43.289459 461.873749,36.216606 502.716553,55.946957 
	C510.312225,59.616268 517.333252,64.475098 524.892578,69.018753 
z"/>
<path fill="#FFFFFF" opacity="1.000000" stroke="none" 
	d="
M55.063896,191.688187 
	C54.982960,169.348190 61.861462,149.997604 77.317162,134.371445 
	C90.156204,121.390816 105.681213,113.536232 124.276505,111.803154 
	C152.921799,109.133423 176.119949,119.029892 193.819855,141.349396 
	C206.888000,157.828323 211.643188,176.857330 209.424713,197.866058 
	C207.563309,215.493134 200.141098,230.487366 188.074341,242.862366 
	C175.887558,255.360428 161.023758,263.277557 143.150787,265.284760 
	C124.293594,267.402496 106.695335,264.506958 90.834236,253.947647 
	C70.522896,240.425659 58.213657,221.760635 55.883278,197.069061 
	C55.727356,195.416962 55.365650,193.784271 55.063896,191.688187 
z"/>
</svg>