<svg width="28" height="29" viewBox="0 0 28 29" fill="none" xmlns="http://www.w3.org/2000/svg">
<path d="M14 1.66832C7.08404 1.66832 1.45837 7.29515 1.45837 14.21C1.45837 21.1248 7.08404 26.7517 14 26.7517C20.916 26.7517 26.5417 21.1248 26.5417 14.21C26.5417 7.29515 20.916 1.66832 14 1.66832ZM14 25.0017C8.04887 25.0017 3.20837 20.1612 3.20837 14.21C3.20837 8.25882 8.04887 3.41832 14 3.41832C19.9512 3.41832 24.7917 8.25882 24.7917 14.21C24.7917 20.1612 19.9512 25.0017 14 25.0017ZM18.1184 11.3284L15.2367 14.21L18.1184 17.0916C18.4602 17.4335 18.4602 17.9877 18.1184 18.3295C17.948 18.4998 17.724 18.5861 17.5 18.5861C17.276 18.5861 17.052 18.501 16.8817 18.3295L14 15.4478L11.1184 18.3295C10.948 18.4998 10.724 18.5861 10.5 18.5861C10.276 18.5861 10.052 18.501 9.88171 18.3295C9.53988 17.9877 9.53988 17.4335 9.88171 17.0916L12.7634 14.21L9.88171 11.3284C9.53988 10.9865 9.53988 10.4323 9.88171 10.0905C10.2235 9.74865 10.7777 9.74865 11.1195 10.0905L14.0012 12.9722L16.8829 10.0905C17.2247 9.74865 17.7789 9.74865 18.1207 10.0905C18.4602 10.4323 18.4602 10.9877 18.1184 11.3284Z" fill="#2972FF"/>
</svg>
