<svg width="41" height="51" viewBox="0 0 41 51" xmlns="http://www.w3.org/2000/svg">
<path d="M20.4181 22.2321C14.4399 22.2321 9.57883 17.3685 9.57883 11.3928C9.57883 5.41721 14.4399 0.553562 20.4181 0.553562C26.3963 0.553562 31.2574 5.41721 31.2574 11.3928C31.2574 17.3685 26.3963 22.2321 20.4181 22.2321ZM20.4181 4.37919C16.5491 4.37919 13.4045 7.52385 13.4045 11.3928C13.4045 15.2618 16.5491 18.4065 20.4181 18.4065C24.2871 18.4065 27.4317 15.2618 27.4317 11.3928C27.4317 7.52385 24.2845 4.37919 20.4181 4.37919ZM40.1608 48.3739V40.7712C40.1608 33.9845 36.3199 26.0577 25.4959 26.0577H15.2942C4.47026 26.0577 0.629333 33.982 0.629333 40.7712V48.3739C0.629333 49.4297 1.48627 50.2867 2.54215 50.2867C3.59802 50.2867 4.45496 49.4297 4.45496 48.3739V40.7712C4.45496 38.2182 5.23794 29.8834 15.2942 29.8834H25.4959C35.5522 29.8834 36.3352 38.2157 36.3352 40.7712V48.3739C36.3352 49.4297 37.1921 50.2867 38.248 50.2867C39.3038 50.2867 40.1608 49.4297 40.1608 48.3739Z"/>
</svg>
